<mxfile host="65bd71144e">
    <diagram id="YnQM-aLPONL_nE37jxD9" name="PÃ¡gina-1">
        <mxGraphModel dx="2171" dy="423" grid="1" gridSize="10" guides="1" tooltips="1" connect="1" arrows="1" fold="1" page="1" pageScale="1" pageWidth="827" pageHeight="1169" math="0" shadow="0">
            <root>
                <mxCell id="0"/>
                <mxCell id="1" parent="0"/>
                <mxCell id="3" value="Empleado" style="swimlane;fontStyle=1;align=center;verticalAlign=top;childLayout=stackLayout;horizontal=1;startSize=26;horizontalStack=0;resizeParent=1;resizeParentMax=0;resizeLast=0;collapsible=1;marginBottom=0;whiteSpace=wrap;html=1;" parent="1" vertex="1">
                    <mxGeometry x="-840" y="440" width="320" height="220" as="geometry">
                        <mxRectangle x="-840" y="440" width="90" height="30" as="alternateBounds"/>
                    </mxGeometry>
                </mxCell>
                <mxCell id="4" value="- String nombre&lt;div&gt;- String telefono&lt;/div&gt;&lt;div&gt;- String email&lt;/div&gt;" style="text;strokeColor=none;fillColor=none;align=left;verticalAlign=top;spacingLeft=4;spacingRight=4;overflow=hidden;rotatable=0;points=[[0,0.5],[1,0.5]];portConstraint=eastwest;whiteSpace=wrap;html=1;" parent="3" vertex="1">
                    <mxGeometry y="26" width="320" height="54" as="geometry"/>
                </mxCell>
                <mxCell id="5" value="" style="line;strokeWidth=1;fillColor=none;align=left;verticalAlign=middle;spacingTop=-1;spacingLeft=3;spacingRight=3;rotatable=0;labelPosition=right;points=[];portConstraint=eastwest;strokeColor=inherit;" parent="3" vertex="1">
                    <mxGeometry y="80" width="320" height="10" as="geometry"/>
                </mxCell>
                <mxCell id="6" value="+ Empleado(String nombre)&lt;div&gt;+ Empleado(String nombre, String telefono, String email&lt;/div&gt;&lt;div&gt;+ void setTelefono(String telefono)&lt;/div&gt;&lt;div&gt;+ void setEmail(String email)&lt;/div&gt;&lt;div&gt;+ String getNombre()&lt;/div&gt;&lt;div&gt;+ String getTelefono()&lt;/div&gt;&lt;div&gt;+ String getEmail()&lt;/div&gt;&lt;div&gt;&lt;span style=&quot;color: rgb(63, 63, 63);&quot;&gt;+ double getCostoTotal(Pedido pedido)&lt;/span&gt;&lt;/div&gt;" style="text;strokeColor=none;fillColor=none;align=left;verticalAlign=top;spacingLeft=4;spacingRight=4;overflow=hidden;rotatable=0;points=[[0,0.5],[1,0.5]];portConstraint=eastwest;whiteSpace=wrap;html=1;" parent="3" vertex="1">
                    <mxGeometry y="90" width="320" height="130" as="geometry"/>
                </mxCell>
                <mxCell id="9" value="Producto" style="swimlane;fontStyle=1;align=center;verticalAlign=top;childLayout=stackLayout;horizontal=1;startSize=26;horizontalStack=0;resizeParent=1;resizeParentMax=0;resizeLast=0;collapsible=1;marginBottom=0;whiteSpace=wrap;html=1;" parent="1" vertex="1">
                    <mxGeometry x="-470" y="110" width="380" height="250" as="geometry">
                        <mxRectangle x="-490" y="520" width="90" height="30" as="alternateBounds"/>
                    </mxGeometry>
                </mxCell>
                <mxCell id="10" value="- int nroCodigo&lt;div&gt;- String descripcion&lt;/div&gt;&lt;div&gt;- double precioUnitario&lt;/div&gt;" style="text;strokeColor=none;fillColor=none;align=left;verticalAlign=top;spacingLeft=4;spacingRight=4;overflow=hidden;rotatable=0;points=[[0,0.5],[1,0.5]];portConstraint=eastwest;whiteSpace=wrap;html=1;" parent="9" vertex="1">
                    <mxGeometry y="26" width="380" height="54" as="geometry"/>
                </mxCell>
                <mxCell id="11" value="" style="line;strokeWidth=1;fillColor=none;align=left;verticalAlign=middle;spacingTop=-1;spacingLeft=3;spacingRight=3;rotatable=0;labelPosition=right;points=[];portConstraint=eastwest;strokeColor=inherit;" parent="9" vertex="1">
                    <mxGeometry y="80" width="380" height="8" as="geometry"/>
                </mxCell>
                <mxCell id="12" value="+ Producto(int nroCodigo, String descripcion, double precioUnitario)&lt;div&gt;&lt;font color=&quot;#000000&quot;&gt;+ int hashCode()&lt;/font&gt;&lt;/div&gt;&lt;div&gt;&lt;font color=&quot;#000000&quot;&gt;+ boolean equals(object obj)&lt;br&gt;&lt;/font&gt;&lt;div&gt;+ void setPrecioUnitario(double nuevoPrecio)&lt;/div&gt;&lt;div&gt;+ int getNroCodigo()&lt;/div&gt;&lt;div&gt;+ void setNroCodigo(int nroCodigo)&lt;/div&gt;&lt;div&gt;+ String getDescripcion()&lt;/div&gt;&lt;div&gt;+ void setDescripcion(String descripcion)&lt;/div&gt;&lt;div&gt;+ double getPrecioUnitario()&lt;/div&gt;&lt;/div&gt;&lt;div&gt;+ String toString()&lt;/div&gt;" style="text;strokeColor=none;fillColor=none;align=left;verticalAlign=top;spacingLeft=4;spacingRight=4;overflow=hidden;rotatable=0;points=[[0,0.5],[1,0.5]];portConstraint=eastwest;whiteSpace=wrap;html=1;" parent="9" vertex="1">
                    <mxGeometry y="88" width="380" height="162" as="geometry"/>
                </mxCell>
                <mxCell id="14" value="Pedido" style="swimlane;fontStyle=1;align=center;verticalAlign=top;childLayout=stackLayout;horizontal=1;startSize=26;horizontalStack=0;resizeParent=1;resizeParentMax=0;resizeLast=0;collapsible=1;marginBottom=0;whiteSpace=wrap;html=1;" parent="1" vertex="1">
                    <mxGeometry x="-980" y="820" width="330" height="230" as="geometry">
                        <mxRectangle x="-775" y="790" width="80" height="30" as="alternateBounds"/>
                    </mxGeometry>
                </mxCell>
                <mxCell id="15" value="- Empleado responsable&lt;div&gt;- GregorianCalendar fecha&lt;/div&gt;" style="text;strokeColor=none;fillColor=none;align=left;verticalAlign=top;spacingLeft=4;spacingRight=4;overflow=hidden;rotatable=0;points=[[0,0.5],[1,0.5]];portConstraint=eastwest;whiteSpace=wrap;html=1;" parent="14" vertex="1">
                    <mxGeometry y="26" width="330" height="44" as="geometry"/>
                </mxCell>
                <mxCell id="16" value="" style="line;strokeWidth=1;fillColor=none;align=left;verticalAlign=middle;spacingTop=-1;spacingLeft=3;spacingRight=3;rotatable=0;labelPosition=right;points=[];portConstraint=eastwest;strokeColor=inherit;" parent="14" vertex="1">
                    <mxGeometry y="70" width="330" height="8" as="geometry"/>
                </mxCell>
                <mxCell id="17" value="&lt;div&gt;+ Pedido(GregorianCalendar fecha)&lt;/div&gt;&lt;div&gt;+ void agregarLineaDePedido(LineaDePedido nuevaLinea)&lt;/div&gt;&lt;div&gt;+ void setResponsable(Empleado responsable)&lt;/div&gt;+ Empleado getResponsable()&lt;div&gt;+ void setFecha(GregorianCalendar fecha)&lt;/div&gt;&lt;div&gt;+ GregorianCalendar getFecha()&lt;/div&gt;&lt;div&gt;+&amp;nbsp;&lt;span style=&quot;color: rgb(63, 63, 63); background-color: transparent;&quot;&gt;ArrayList&amp;lt;LineaDePedido&amp;gt; getLineasDePedido()&lt;/span&gt;&lt;/div&gt;&lt;div&gt;&lt;span style=&quot;color: rgb(63, 63, 63); background-color: transparent;&quot;&gt;+ double getTotal()&lt;/span&gt;&lt;/div&gt;&lt;div&gt;&lt;span style=&quot;color: rgb(63, 63, 63); background-color: transparent;&quot;&gt;+ String toString()&lt;/span&gt;&lt;/div&gt;" style="text;strokeColor=none;fillColor=none;align=left;verticalAlign=top;spacingLeft=4;spacingRight=4;overflow=hidden;rotatable=0;points=[[0,0.5],[1,0.5]];portConstraint=eastwest;whiteSpace=wrap;html=1;" parent="14" vertex="1">
                    <mxGeometry y="78" width="330" height="152" as="geometry"/>
                </mxCell>
                <mxCell id="19" value="LineaDePedido" style="swimlane;fontStyle=1;align=center;verticalAlign=top;childLayout=stackLayout;horizontal=1;startSize=26;horizontalStack=0;resizeParent=1;resizeParentMax=0;resizeLast=0;collapsible=1;marginBottom=0;whiteSpace=wrap;html=1;" parent="1" vertex="1">
                    <mxGeometry x="-440" y="780" width="280" height="220" as="geometry">
                        <mxRectangle x="-505" y="780" width="120" height="30" as="alternateBounds"/>
                    </mxGeometry>
                </mxCell>
                <mxCell id="20" value="- Producto producto&lt;div&gt;- int cantidad&lt;/div&gt;" style="text;strokeColor=none;fillColor=none;align=left;verticalAlign=top;spacingLeft=4;spacingRight=4;overflow=hidden;rotatable=0;points=[[0,0.5],[1,0.5]];portConstraint=eastwest;whiteSpace=wrap;html=1;" parent="19" vertex="1">
                    <mxGeometry y="26" width="280" height="34" as="geometry"/>
                </mxCell>
                <mxCell id="21" value="" style="line;strokeWidth=1;fillColor=none;align=left;verticalAlign=middle;spacingTop=-1;spacingLeft=3;spacingRight=3;rotatable=0;labelPosition=right;points=[];portConstraint=eastwest;strokeColor=inherit;" parent="19" vertex="1">
                    <mxGeometry y="60" width="280" height="8" as="geometry"/>
                </mxCell>
                <mxCell id="22" value="&lt;div&gt;+ LineaDePedido()&lt;/div&gt;+ LineaDePedido(Producto producto, int cantidad)&lt;div&gt;+ void setProducto(Producto producto)&lt;/div&gt;&lt;div&gt;+ void setCantidad(int Cantidad)&lt;/div&gt;&lt;div&gt;+ Producto getProducto()&lt;/div&gt;&lt;div&gt;+ int getCantidad()&lt;/div&gt;&lt;div&gt;+ int compareTo(LineaDePedido o)&lt;/div&gt;&lt;div&gt;+ int hashCode()&lt;/div&gt;&lt;div&gt;+ boolean equals(Object obj)&lt;/div&gt;&lt;div&gt;+ String toString()&lt;/div&gt;" style="text;strokeColor=none;fillColor=none;align=left;verticalAlign=top;spacingLeft=4;spacingRight=4;overflow=hidden;rotatable=0;points=[[0,0.5],[1,0.5]];portConstraint=eastwest;whiteSpace=wrap;html=1;" parent="19" vertex="1">
                    <mxGeometry y="68" width="280" height="152" as="geometry"/>
                </mxCell>
                <mxCell id="25" value="" style="endArrow=open;html=1;endSize=12;startArrow=diamondThin;startSize=14;startFill=0;edgeStyle=orthogonalEdgeStyle;align=left;verticalAlign=bottom;exitX=1;exitY=0.25;exitDx=0;exitDy=0;entryX=0;entryY=0.5;entryDx=0;entryDy=0;" parent="1" source="14" edge="1" target="20">
                    <mxGeometry x="-1" y="3" relative="1" as="geometry">
                        <mxPoint x="-710" y="700" as="sourcePoint"/>
                        <mxPoint x="-510" y="797" as="targetPoint"/>
                    </mxGeometry>
                </mxCell>
                <mxCell id="26" value="" style="endArrow=open;html=1;endSize=12;startArrow=diamondThin;startSize=14;startFill=1;edgeStyle=orthogonalEdgeStyle;align=left;verticalAlign=bottom;entryX=0.5;entryY=0;entryDx=0;entryDy=0;exitX=0.5;exitY=1;exitDx=0;exitDy=0;" parent="1" source="3" target="14" edge="1">
                    <mxGeometry x="-1" y="3" relative="1" as="geometry">
                        <mxPoint x="-730" y="620" as="sourcePoint"/>
                        <mxPoint x="-570" y="690" as="targetPoint"/>
                    </mxGeometry>
                </mxCell>
                <mxCell id="27" value="" style="endArrow=open;html=1;endSize=12;startArrow=diamondThin;startSize=14;startFill=1;edgeStyle=orthogonalEdgeStyle;align=left;verticalAlign=bottom;exitX=0.5;exitY=1;exitDx=0;exitDy=0;entryX=0.5;entryY=0;entryDx=0;entryDy=0;" parent="1" source="9" target="19" edge="1">
                    <mxGeometry x="-1" y="3" relative="1" as="geometry">
                        <mxPoint x="-760" y="670" as="sourcePoint"/>
                        <mxPoint x="-600" y="670" as="targetPoint"/>
                    </mxGeometry>
                </mxCell>
                <mxCell id="29" value="ConjuntoGenericoOrdenado&amp;lt;E extends Comparable&amp;lt;E&amp;gt;" style="swimlane;fontStyle=1;align=center;verticalAlign=top;childLayout=stackLayout;horizontal=1;startSize=26;horizontalStack=0;resizeParent=1;resizeParentMax=0;resizeLast=0;collapsible=1;marginBottom=0;whiteSpace=wrap;html=1;" parent="1" vertex="1">
                    <mxGeometry x="-1250" y="330" width="360" height="242" as="geometry"/>
                </mxCell>
                <mxCell id="30" value="- TreeSet&amp;lt;E&amp;gt; elementos" style="text;strokeColor=none;fillColor=none;align=left;verticalAlign=top;spacingLeft=4;spacingRight=4;overflow=hidden;rotatable=0;points=[[0,0.5],[1,0.5]];portConstraint=eastwest;whiteSpace=wrap;html=1;" parent="29" vertex="1">
                    <mxGeometry y="26" width="360" height="26" as="geometry"/>
                </mxCell>
                <mxCell id="31" value="" style="line;strokeWidth=1;fillColor=none;align=left;verticalAlign=middle;spacingTop=-1;spacingLeft=3;spacingRight=3;rotatable=0;labelPosition=right;points=[];portConstraint=eastwest;strokeColor=inherit;" parent="29" vertex="1">
                    <mxGeometry y="52" width="360" height="8" as="geometry"/>
                </mxCell>
                <mxCell id="32" value="+ ConjuntoGenericoOrdenado()" style="text;strokeColor=none;fillColor=none;align=left;verticalAlign=top;spacingLeft=4;spacingRight=4;overflow=hidden;rotatable=0;points=[[0,0.5],[1,0.5]];portConstraint=eastwest;whiteSpace=wrap;html=1;" parent="29" vertex="1">
                    <mxGeometry y="60" width="360" height="26" as="geometry"/>
                </mxCell>
                <mxCell id="33" value="+ void agrega(E elemento)" style="text;strokeColor=none;fillColor=none;align=left;verticalAlign=top;spacingLeft=4;spacingRight=4;overflow=hidden;rotatable=0;points=[[0,0.5],[1,0.5]];portConstraint=eastwest;whiteSpace=wrap;html=1;" parent="29" vertex="1">
                    <mxGeometry y="86" width="360" height="26" as="geometry"/>
                </mxCell>
                <mxCell id="34" value="+ void elimina(E elemento)" style="text;strokeColor=none;fillColor=none;align=left;verticalAlign=top;spacingLeft=4;spacingRight=4;overflow=hidden;rotatable=0;points=[[0,0.5],[1,0.5]];portConstraint=eastwest;whiteSpace=wrap;html=1;" parent="29" vertex="1">
                    <mxGeometry y="112" width="360" height="26" as="geometry"/>
                </mxCell>
                <mxCell id="35" value="+ int getCardinal()" style="text;strokeColor=none;fillColor=none;align=left;verticalAlign=top;spacingLeft=4;spacingRight=4;overflow=hidden;rotatable=0;points=[[0,0.5],[1,0.5]];portConstraint=eastwest;whiteSpace=wrap;html=1;" parent="29" vertex="1">
                    <mxGeometry y="138" width="360" height="26" as="geometry"/>
                </mxCell>
                <mxCell id="36" value="+ Iterator&amp;lt;E&amp;gt; getIterator()" style="text;strokeColor=none;fillColor=none;align=left;verticalAlign=top;spacingLeft=4;spacingRight=4;overflow=hidden;rotatable=0;points=[[0,0.5],[1,0.5]];portConstraint=eastwest;whiteSpace=wrap;html=1;" parent="29" vertex="1">
                    <mxGeometry y="164" width="360" height="26" as="geometry"/>
                </mxCell>
                <mxCell id="37" value="+ E getMayor()" style="text;strokeColor=none;fillColor=none;align=left;verticalAlign=top;spacingLeft=4;spacingRight=4;overflow=hidden;rotatable=0;points=[[0,0.5],[1,0.5]];portConstraint=eastwest;whiteSpace=wrap;html=1;" parent="29" vertex="1">
                    <mxGeometry y="190" width="360" height="26" as="geometry"/>
                </mxCell>
                <mxCell id="38" value="+ E getMenor()" style="text;strokeColor=none;fillColor=none;align=left;verticalAlign=top;spacingLeft=4;spacingRight=4;overflow=hidden;rotatable=0;points=[[0,0.5],[1,0.5]];portConstraint=eastwest;whiteSpace=wrap;html=1;" parent="29" vertex="1">
                    <mxGeometry y="216" width="360" height="26" as="geometry"/>
                </mxCell>
                <mxCell id="39" value="&lt;p style=&quot;margin:0px;margin-top:4px;text-align:center;&quot;&gt;&lt;i&gt;&amp;lt;&amp;lt;Interface&amp;gt;&amp;gt;&lt;/i&gt;&lt;br&gt;&lt;b&gt;IConjunto&lt;/b&gt;&lt;/p&gt;&lt;hr size=&quot;1&quot; style=&quot;border-style:solid;&quot;&gt;&lt;p style=&quot;margin:0px;margin-left:4px;&quot;&gt;&lt;br&gt;&lt;/p&gt;&lt;hr size=&quot;1&quot; style=&quot;border-style:solid;&quot;&gt;&lt;p style=&quot;margin:0px;margin-left:4px;&quot;&gt;&lt;span style=&quot;color: rgb(0, 0, 0);&quot;&gt;+ void agrega(E elemento)&lt;/span&gt;&lt;/p&gt;&lt;p style=&quot;margin:0px;margin-left:4px;&quot;&gt;&lt;span style=&quot;color: rgb(0, 0, 0);&quot;&gt;&lt;span style=&quot;color: rgb(0, 0, 0);&quot;&gt;+ void elimina(E elemento)&lt;/span&gt;&lt;/span&gt;&lt;/p&gt;&lt;p style=&quot;margin:0px;margin-left:4px;&quot;&gt;&lt;span style=&quot;color: rgb(0, 0, 0);&quot;&gt;&lt;span style=&quot;color: rgb(0, 0, 0);&quot;&gt;&lt;span style=&quot;color: rgb(0, 0, 0);&quot;&gt;+ int getCardinal()&lt;/span&gt;&lt;/span&gt;&lt;/span&gt;&lt;/p&gt;&lt;p style=&quot;margin:0px;margin-left:4px;&quot;&gt;&lt;span style=&quot;color: rgb(0, 0, 0);&quot;&gt;&lt;span style=&quot;color: rgb(0, 0, 0);&quot;&gt;&lt;span style=&quot;color: rgb(0, 0, 0);&quot;&gt;&lt;span style=&quot;color: rgb(0, 0, 0);&quot;&gt;+ Iterator&amp;lt;T&amp;gt; getIterator()&lt;/span&gt;&lt;/span&gt;&lt;/span&gt;&lt;/span&gt;&lt;/p&gt;" style="verticalAlign=top;align=left;overflow=fill;html=1;whiteSpace=wrap;" parent="1" vertex="1">
                    <mxGeometry x="-880" y="40" width="190" height="140" as="geometry"/>
                </mxCell>
                <mxCell id="40" value="" style="endArrow=block;dashed=1;endFill=0;endSize=12;html=1;exitX=0.5;exitY=0;exitDx=0;exitDy=0;entryX=0.5;entryY=1;entryDx=0;entryDy=0;" parent="1" source="29" target="39" edge="1">
                    <mxGeometry width="160" relative="1" as="geometry">
                        <mxPoint x="-1050" y="250" as="sourcePoint"/>
                        <mxPoint x="-890" y="250" as="targetPoint"/>
                    </mxGeometry>
                </mxCell>
                <mxCell id="41" value="Â«interfaceÂ»&lt;br&gt;&lt;b&gt;Comparable&amp;lt;Pedido&amp;gt;&lt;/b&gt;" style="html=1;whiteSpace=wrap;" parent="1" vertex="1">
                    <mxGeometry x="-200" y="540" width="150" height="50" as="geometry"/>
                </mxCell>
                <mxCell id="42" value="" style="endArrow=block;dashed=1;endFill=0;endSize=12;html=1;exitX=1;exitY=0;exitDx=0;exitDy=0;entryX=0.5;entryY=1;entryDx=0;entryDy=0;" parent="1" source="19" target="41" edge="1">
                    <mxGeometry width="160" relative="1" as="geometry">
                        <mxPoint x="-370" y="730" as="sourcePoint"/>
                        <mxPoint x="-210" y="730" as="targetPoint"/>
                    </mxGeometry>
                </mxCell>
                <mxCell id="43" value="Extends" style="endArrow=block;endSize=16;endFill=0;html=1;exitX=0.25;exitY=0;exitDx=0;exitDy=0;entryX=0.491;entryY=1.142;entryDx=0;entryDy=0;entryPerimeter=0;" parent="1" source="14" target="38" edge="1">
                    <mxGeometry width="160" relative="1" as="geometry">
                        <mxPoint x="-470" y="630" as="sourcePoint"/>
                        <mxPoint x="-310" y="630" as="targetPoint"/>
                    </mxGeometry>
                </mxCell>
            </root>
        </mxGraphModel>
    </diagram>
</mxfile>